<svg xmlns="http://www.w3.org/2000/svg" viewBox="0 0 800 600">
  <!-- Background circle -->
  <circle cx="400" cy="300" r="240" fill="#f9f4ff" />
  
  <!-- Credit card body -->
  <rect x="250" y="180" width="300" height="200" rx="20" fill="#6200EA" />
  <rect x="250" y="230" width="300" height="50" fill="#3700B3" />
  
  <!-- Card chip -->
  <rect x="290" y="260" width="40" height="30" rx="4" fill="#FFAB00" />
  <line x1="295" y1="270" x2="325" y2="270" stroke="#FFC400" stroke-width="2" />
  <line x1="295" y1="280" x2="325" y2="280" stroke="#FFC400" stroke-width="2" />
  
  <!-- Contactless symbol -->
  <path d="M350 270 Q360 255, 370 270" fill="none" stroke="#E8EAF6" stroke-width="3" />
  <path d="M345 275 Q360 250, 375 275" fill="none" stroke="#E8EAF6" stroke-width="3" />
  <path d="M340 280 Q360 245, 380 280" fill="none" stroke="#E8EAF6" stroke-width="3" />
  
  <!-- Card number -->
  <rect x="290" y="310" width="40" height="10" rx="2" fill="#E8EAF6" />
  <rect x="340" y="310" width="40" height="10" rx="2" fill="#E8EAF6" />
  <rect x="390" y="310" width="40" height="10" rx="2" fill="#E8EAF6" />
  <rect x="440" y="310" width="40" height="10" rx="2" fill="#E8EAF6" />
  
  <!-- Card details -->
  <rect x="290" y="340" width="80" height="10" rx="2" fill="#E8EAF6" />
  <rect x="290" y="355" width="50" height="5" rx="2" fill="#C5CAE9" />
  
  <!-- Lock icon -->
  <circle cx="500" cy="350" r="25" fill="#1DE9B6" />
  <rect x="490" y="340" width="20" height="25" rx="4" fill="#00BFA5" />
  <rect x="495" y="335" width="10" height="10" rx="5" fill="#00BFA5" />
  <circle cx="500" cy="350" r="3" fill="#E0F2F1" />
  <line x1="500" y1="350" x2="500" y2="355" stroke="#E0F2F1" stroke-width="2" />
  
  <!-- Floating security icons -->
  <circle cx="220" cy="230" r="30" fill="#FF8A80" />
  <path d="M220 210 L220 250 M220 210 L200 230 L220 250 L240 230 Z" fill="none" stroke="#D50000" stroke-width="3" />
  
  <circle cx="550" cy="200" r="25" fill="#FFFF8D" />
  <circle cx="550" cy="195" r="8" fill="none" stroke="#FFD600" stroke-width="3" />
  <rect x="542" y="205" width="16" height="10" rx="2" fill="none" stroke="#FFD600" stroke-width="3" />
  
  <circle cx="230" cy="380" r="28" fill="#80D8FF" />
  <path d="M230 365 L230 395 M215 375 L245 385" stroke="#0091EA" stroke-width="3" stroke-linecap="round" />
  
  <circle cx="530" cy="400" r="35" fill="#B9F6CA" />
  <path d="M515 400 A15 15 0 0 1 545 400" fill="none" stroke="#00C853" stroke-width="3" stroke-linecap="round" />
  <path d="M525 385 L535 390 L525 395" fill="none" stroke="#00C853" stroke-width="3" stroke-linecap="round" stroke-linejoin="round" />
  
  <!-- Gradient overlay -->
  <rect x="250" y="180" width="300" height="200" rx="20" fill="url(#cardGradient)" opacity="0.2" />
  
  <!-- Decorative elements -->
  <circle cx="280" cy="200" r="8" fill="#FFAB00" opacity="0.7" />
  <circle cx="300" cy="200" r="5" fill="#FFAB00" opacity="0.5" />
  <circle cx="320" cy="200" r="3" fill="#FFAB00" opacity="0.3" />
  
  <!-- Definitions -->
  <defs>
    <linearGradient id="cardGradient" x1="0%" y1="0%" x2="100%" y2="100%">
      <stop offset="0%" style="stop-color:#7C4DFF;stop-opacity:1" />
      <stop offset="100%" style="stop-color:#03DAC6;stop-opacity:1" />
    </linearGradient>
  </defs>
</svg> 