<svg xmlns="http://www.w3.org/2000/svg" xmlns:xlink="http://www.w3.org/1999/xlink" width="500" zoomAndPan="magnify" viewBox="0 0 375 374.999991" height="500" preserveAspectRatio="xMidYMid meet" version="1.0"><defs><g/><clipPath id="28c671ae58"><path d="M 140.308594 115.238281 L 232 115.238281 L 232 186 L 140.308594 186 Z M 140.308594 115.238281 " clip-rule="nonzero"/></clipPath><clipPath id="495cb39b71"><path d="M 143 139 L 234.808594 139 L 234.808594 209.738281 L 143 209.738281 Z M 143 139 " clip-rule="nonzero"/></clipPath></defs><g fill="#000000" fill-opacity="1"><g transform="translate(117.658744, 246.39013)"><g><path d="M 0.328125 0 L 0.328125 -3.84375 L 11.4375 -17.59375 L 1.578125 -17.59375 L 1.578125 -21.15625 L 17.046875 -21.15625 L 17.046875 -17.84375 L 5.46875 -3.578125 L 17.484375 -3.578125 L 17.484375 0 Z M 0.328125 0 "/></g></g></g><g fill="#000000" fill-opacity="1"><g transform="translate(140.661616, 246.39013)"><g><path d="M 21.203125 0 L 16.578125 0 L 14.75 -4.8125 L 6.265625 -4.8125 L 4.515625 0 L 0 0 L 8.234375 -21.15625 L 12.765625 -21.15625 Z M 13.359375 -8.375 L 10.453125 -16.21875 L 7.59375 -8.375 Z M 13.359375 -8.375 "/></g></g></g><g fill="#000000" fill-opacity="1"><g transform="translate(166.952146, 246.39013)"><g><path d="M 2.171875 0 L 2.171875 -21.15625 L 9.015625 -21.15625 C 11.609375 -21.15625 13.300781 -21.046875 14.09375 -20.828125 C 15.300781 -20.515625 16.3125 -19.828125 17.125 -18.765625 C 17.9375 -17.703125 18.34375 -16.332031 18.34375 -14.65625 C 18.34375 -13.539062 18.171875 -12.578125 17.828125 -11.765625 C 17.484375 -10.953125 16.992188 -10.257812 16.359375 -9.6875 C 15.722656 -9.125 14.972656 -8.695312 14.109375 -8.40625 C 13.242188 -8.125 11.613281 -7.984375 9.21875 -7.984375 L 6.40625 -7.984375 L 6.40625 0 Z M 6.40625 -17.59375 L 6.40625 -11.578125 L 8.75 -11.578125 C 10.4375 -11.578125 11.5625 -11.6875 12.125 -11.90625 C 12.6875 -12.125 13.128906 -12.46875 13.453125 -12.9375 C 13.785156 -13.40625 13.953125 -13.957031 13.953125 -14.59375 C 13.953125 -15.363281 13.722656 -15.992188 13.265625 -16.484375 C 12.804688 -16.972656 12.238281 -17.285156 11.5625 -17.421875 C 11.050781 -17.535156 10.023438 -17.59375 8.484375 -17.59375 Z M 6.40625 -17.59375 "/></g></g></g><g fill="#000000" fill-opacity="1"><g transform="translate(191.613264, 246.39013)"><g><path d="M 2.28125 0 L 2.28125 -21.15625 L 6.53125 -21.15625 L 6.53125 -3.578125 L 17.171875 -3.578125 L 17.171875 0 Z M 2.28125 0 "/></g></g></g><g fill="#000000" fill-opacity="1"><g transform="translate(214.616139, 246.39013)"><g><path d="M 2.171875 0 L 2.171875 -21.15625 L 17.84375 -21.15625 L 17.84375 -17.59375 L 6.40625 -17.59375 L 6.40625 -12.890625 L 17.046875 -12.890625 L 17.046875 -9.3125 L 6.40625 -9.3125 L 6.40625 -3.578125 L 18.234375 -3.578125 L 18.234375 0 Z M 2.171875 0 "/></g></g></g><g fill="#000000" fill-opacity="1"><g transform="translate(239.277263, 246.39013)"><g><path d="M 6.90625 0 L 6.90625 -17.59375 L 0.625 -17.59375 L 0.625 -21.15625 L 17.421875 -21.15625 L 17.421875 -17.59375 L 11.171875 -17.59375 L 11.171875 0 Z M 6.90625 0 "/></g></g></g><g fill="#000000" fill-opacity="1"><g transform="translate(100.677782, 265.653966)"><g><path d="M 0.0625 0 L 2.3125 -4.90625 L 3 -4.90625 L 5.25 0 L 4.625 0 L 4.078125 -1.171875 L 1.21875 -1.171875 L 0.671875 0 Z M 1.4375 -1.6875 L 3.875 -1.6875 L 2.65625 -4.359375 Z M 1.4375 -1.6875 "/></g></g></g><g fill="#000000" fill-opacity="1"><g transform="translate(109.377712, 265.653966)"><g><path d="M 0.375 0 L 0.375 -4.90625 L 0.953125 -4.90625 L 0.953125 -0.515625 L 3.8125 -0.515625 L 3.8125 0 Z M 0.375 0 "/></g></g></g><g fill="#000000" fill-opacity="1"><g transform="translate(116.657811, 265.653966)"><g><path d="M 0.375 0 L 0.375 -4.90625 L 0.953125 -4.90625 L 0.953125 -0.515625 L 3.8125 -0.515625 L 3.8125 0 Z M 0.375 0 "/></g></g></g><g fill="#000000" fill-opacity="1"><g transform="translate(123.937911, 265.653966)"><g/></g></g><g fill="#000000" fill-opacity="1"><g transform="translate(129.380576, 265.653966)"><g><path d="M 2.15625 0 L 2.15625 -1.828125 L 0.03125 -4.90625 L 0.71875 -4.90625 L 2.4375 -2.375 L 2.453125 -2.375 L 4.140625 -4.90625 L 4.828125 -4.90625 L 2.71875 -1.828125 L 2.71875 0 Z M 2.15625 0 "/></g></g></g><g fill="#000000" fill-opacity="1"><g transform="translate(137.655946, 265.653966)"><g><path d="M 3.25 0.171875 C 2.65625 0.171875 2.132812 0.0625 1.6875 -0.15625 C 1.238281 -0.375 0.890625 -0.679688 0.640625 -1.078125 C 0.390625 -1.472656 0.265625 -1.929688 0.265625 -2.453125 C 0.265625 -2.972656 0.390625 -3.429688 0.640625 -3.828125 C 0.890625 -4.222656 1.238281 -4.53125 1.6875 -4.75 C 2.132812 -4.96875 2.65625 -5.078125 3.25 -5.078125 C 3.84375 -5.078125 4.363281 -4.96875 4.8125 -4.75 C 5.257812 -4.53125 5.609375 -4.222656 5.859375 -3.828125 C 6.109375 -3.429688 6.234375 -2.972656 6.234375 -2.453125 C 6.234375 -1.929688 6.109375 -1.472656 5.859375 -1.078125 C 5.609375 -0.679688 5.257812 -0.375 4.8125 -0.15625 C 4.363281 0.0625 3.84375 0.171875 3.25 0.171875 Z M 3.25 -0.34375 C 3.726562 -0.34375 4.144531 -0.429688 4.5 -0.609375 C 4.863281 -0.785156 5.144531 -1.03125 5.34375 -1.34375 C 5.550781 -1.664062 5.65625 -2.035156 5.65625 -2.453125 C 5.65625 -2.867188 5.550781 -3.234375 5.34375 -3.546875 C 5.144531 -3.867188 4.863281 -4.117188 4.5 -4.296875 C 4.144531 -4.472656 3.726562 -4.5625 3.25 -4.5625 C 2.769531 -4.5625 2.347656 -4.472656 1.984375 -4.296875 C 1.628906 -4.117188 1.347656 -3.867188 1.140625 -3.546875 C 0.941406 -3.234375 0.84375 -2.867188 0.84375 -2.453125 C 0.84375 -2.035156 0.941406 -1.664062 1.140625 -1.34375 C 1.347656 -1.03125 1.628906 -0.785156 1.984375 -0.609375 C 2.347656 -0.429688 2.769531 -0.34375 3.25 -0.34375 Z M 3.25 -0.34375 "/></g></g></g><g fill="#000000" fill-opacity="1"><g transform="translate(147.559952, 265.653966)"><g><path d="M 2.65625 0.171875 C 2.1875 0.171875 1.773438 0.0820312 1.421875 -0.09375 C 1.078125 -0.269531 0.804688 -0.523438 0.609375 -0.859375 C 0.410156 -1.191406 0.3125 -1.582031 0.3125 -2.03125 L 0.3125 -4.90625 L 0.890625 -4.90625 L 0.890625 -2.03125 C 0.890625 -1.6875 0.960938 -1.390625 1.109375 -1.140625 C 1.253906 -0.890625 1.457031 -0.691406 1.71875 -0.546875 C 1.988281 -0.410156 2.300781 -0.34375 2.65625 -0.34375 C 3.007812 -0.34375 3.316406 -0.410156 3.578125 -0.546875 C 3.835938 -0.679688 4.039062 -0.875 4.1875 -1.125 C 4.332031 -1.375 4.40625 -1.675781 4.40625 -2.03125 L 4.40625 -4.90625 L 4.984375 -4.90625 L 4.984375 -2.03125 C 4.984375 -1.582031 4.882812 -1.191406 4.6875 -0.859375 C 4.488281 -0.523438 4.210938 -0.269531 3.859375 -0.09375 C 3.515625 0.0820312 3.113281 0.171875 2.65625 0.171875 Z M 2.65625 0.171875 "/></g></g></g><g fill="#000000" fill-opacity="1"><g transform="translate(156.26684, 265.653966)"><g><path d="M 4.671875 0.140625 C 4.460938 0.140625 4.296875 0.0859375 4.171875 -0.015625 C 4.054688 -0.128906 3.972656 -0.273438 3.921875 -0.453125 L 3.5625 -1.4375 C 3.5 -1.613281 3.398438 -1.757812 3.265625 -1.875 C 3.128906 -1.988281 2.972656 -2.046875 2.796875 -2.046875 L 0.953125 -2.046875 L 0.953125 0 L 0.375 0 L 0.375 -4.90625 L 3.265625 -4.90625 C 3.609375 -4.90625 3.910156 -4.84375 4.171875 -4.71875 C 4.441406 -4.601562 4.648438 -4.441406 4.796875 -4.234375 C 4.941406 -4.023438 5.015625 -3.773438 5.015625 -3.484375 C 5.015625 -3.140625 4.882812 -2.84375 4.625 -2.59375 C 4.375 -2.351562 4.035156 -2.210938 3.609375 -2.171875 L 3.609375 -2.15625 C 3.742188 -2.09375 3.851562 -2.003906 3.9375 -1.890625 C 4.03125 -1.773438 4.101562 -1.644531 4.15625 -1.5 L 4.4375 -0.65625 C 4.46875 -0.5625 4.507812 -0.484375 4.5625 -0.421875 C 4.613281 -0.367188 4.679688 -0.34375 4.765625 -0.34375 C 4.835938 -0.34375 4.910156 -0.367188 4.984375 -0.421875 C 5.066406 -0.484375 5.132812 -0.566406 5.1875 -0.671875 L 5.484375 -0.328125 C 5.390625 -0.191406 5.273438 -0.0820312 5.140625 0 C 5.003906 0.09375 4.847656 0.140625 4.671875 0.140625 Z M 0.953125 -2.5625 L 3.234375 -2.5625 C 3.597656 -2.5625 3.890625 -2.644531 4.109375 -2.8125 C 4.328125 -2.976562 4.4375 -3.195312 4.4375 -3.46875 C 4.4375 -3.738281 4.328125 -3.957031 4.109375 -4.125 C 3.890625 -4.300781 3.597656 -4.390625 3.234375 -4.390625 L 0.953125 -4.390625 Z M 0.953125 -2.5625 "/></g></g></g><g fill="#000000" fill-opacity="1"><g transform="translate(165.161645, 265.653966)"><g/></g></g><g fill="#000000" fill-opacity="1"><g transform="translate(170.604307, 265.653966)"><g><path d="M 2.046875 0 L 2.046875 -4.390625 L 0.0625 -4.390625 L 0.0625 -4.90625 L 4.609375 -4.90625 L 4.609375 -4.390625 L 2.625 -4.390625 L 2.625 0 Z M 2.046875 0 "/></g></g></g><g fill="#000000" fill-opacity="1"><g transform="translate(178.670877, 265.653966)"><g><path d="M 0.375 0 L 0.375 -4.90625 L 4.421875 -4.90625 L 4.421875 -4.390625 L 0.953125 -4.390625 L 0.953125 -2.78125 L 4.15625 -2.78125 L 4.15625 -2.28125 L 0.953125 -2.28125 L 0.953125 -0.515625 L 4.5 -0.515625 L 4.5 0 Z M 0.375 0 "/></g></g></g><g fill="#000000" fill-opacity="1"><g transform="translate(186.737446, 265.653966)"><g><path d="M 3.21875 0.171875 C 2.613281 0.171875 2.085938 0.0664062 1.640625 -0.140625 C 1.203125 -0.359375 0.863281 -0.660156 0.625 -1.046875 C 0.382812 -1.441406 0.265625 -1.910156 0.265625 -2.453125 C 0.265625 -2.984375 0.375 -3.441406 0.59375 -3.828125 C 0.820312 -4.222656 1.140625 -4.53125 1.546875 -4.75 C 1.960938 -4.96875 2.457031 -5.078125 3.03125 -5.078125 C 3.425781 -5.078125 3.785156 -5.007812 4.109375 -4.875 C 4.441406 -4.738281 4.722656 -4.539062 4.953125 -4.28125 C 5.191406 -4.03125 5.363281 -3.734375 5.46875 -3.390625 L 4.9375 -3.21875 C 4.832031 -3.625 4.609375 -3.945312 4.265625 -4.1875 C 3.921875 -4.4375 3.507812 -4.5625 3.03125 -4.5625 C 2.582031 -4.5625 2.191406 -4.472656 1.859375 -4.296875 C 1.535156 -4.128906 1.285156 -3.882812 1.109375 -3.5625 C 0.929688 -3.25 0.84375 -2.878906 0.84375 -2.453125 C 0.84375 -2.023438 0.9375 -1.648438 1.125 -1.328125 C 1.320312 -1.015625 1.597656 -0.769531 1.953125 -0.59375 C 2.304688 -0.425781 2.726562 -0.34375 3.21875 -0.34375 C 3.582031 -0.34375 3.914062 -0.40625 4.21875 -0.53125 C 4.519531 -0.65625 4.769531 -0.832031 4.96875 -1.0625 C 5.175781 -1.300781 5.3125 -1.578125 5.375 -1.890625 L 5.9375 -1.75 C 5.84375 -1.351562 5.664062 -1.007812 5.40625 -0.71875 C 5.15625 -0.4375 4.84375 -0.21875 4.46875 -0.0625 C 4.09375 0.09375 3.675781 0.171875 3.21875 0.171875 Z M 3.21875 0.171875 "/></g></g></g><g fill="#000000" fill-opacity="1"><g transform="translate(196.258653, 265.653966)"><g><path d="M 0.375 0 L 0.375 -4.90625 L 0.953125 -4.90625 L 0.953125 -2.8125 L 4.359375 -2.8125 L 4.359375 -4.90625 L 4.9375 -4.90625 L 4.9375 0 L 4.359375 0 L 4.359375 -2.3125 L 0.953125 -2.3125 L 0.953125 0 Z M 0.375 0 "/></g></g></g><g fill="#000000" fill-opacity="1"><g transform="translate(204.993379, 265.653966)"><g><path d="M 0.25 0.921875 L 0.328125 0.671875 C 0.441406 0.703125 0.546875 0.691406 0.640625 0.640625 C 0.742188 0.597656 0.820312 0.519531 0.875 0.40625 C 0.925781 0.300781 0.953125 0.179688 0.953125 0.046875 C 0.796875 0.0976562 0.660156 0.0820312 0.546875 0 C 0.441406 -0.0703125 0.394531 -0.171875 0.40625 -0.296875 C 0.40625 -0.410156 0.441406 -0.5 0.515625 -0.5625 C 0.585938 -0.632812 0.675781 -0.671875 0.78125 -0.671875 C 0.90625 -0.671875 1.003906 -0.617188 1.078125 -0.515625 C 1.160156 -0.410156 1.203125 -0.238281 1.203125 0 C 1.203125 0.332031 1.113281 0.582031 0.9375 0.75 C 0.757812 0.925781 0.53125 0.984375 0.25 0.921875 Z M 0.25 0.921875 "/></g></g></g><g fill="#000000" fill-opacity="1"><g transform="translate(209.858368, 265.653966)"><g/></g></g><g fill="#000000" fill-opacity="1"><g transform="translate(215.301031, 265.653966)"><g><path d="M 3.25 0.171875 C 2.65625 0.171875 2.132812 0.0625 1.6875 -0.15625 C 1.238281 -0.375 0.890625 -0.679688 0.640625 -1.078125 C 0.390625 -1.472656 0.265625 -1.929688 0.265625 -2.453125 C 0.265625 -2.972656 0.390625 -3.429688 0.640625 -3.828125 C 0.890625 -4.222656 1.238281 -4.53125 1.6875 -4.75 C 2.132812 -4.96875 2.65625 -5.078125 3.25 -5.078125 C 3.84375 -5.078125 4.363281 -4.96875 4.8125 -4.75 C 5.257812 -4.53125 5.609375 -4.222656 5.859375 -3.828125 C 6.109375 -3.429688 6.234375 -2.972656 6.234375 -2.453125 C 6.234375 -1.929688 6.109375 -1.472656 5.859375 -1.078125 C 5.609375 -0.679688 5.257812 -0.375 4.8125 -0.15625 C 4.363281 0.0625 3.84375 0.171875 3.25 0.171875 Z M 3.25 -0.34375 C 3.726562 -0.34375 4.144531 -0.429688 4.5 -0.609375 C 4.863281 -0.785156 5.144531 -1.03125 5.34375 -1.34375 C 5.550781 -1.664062 5.65625 -2.035156 5.65625 -2.453125 C 5.65625 -2.867188 5.550781 -3.234375 5.34375 -3.546875 C 5.144531 -3.867188 4.863281 -4.117188 4.5 -4.296875 C 4.144531 -4.472656 3.726562 -4.5625 3.25 -4.5625 C 2.769531 -4.5625 2.347656 -4.472656 1.984375 -4.296875 C 1.628906 -4.117188 1.347656 -3.867188 1.140625 -3.546875 C 0.941406 -3.234375 0.84375 -2.867188 0.84375 -2.453125 C 0.84375 -2.035156 0.941406 -1.664062 1.140625 -1.34375 C 1.347656 -1.03125 1.628906 -0.785156 1.984375 -0.609375 C 2.347656 -0.429688 2.769531 -0.34375 3.25 -0.34375 Z M 3.25 -0.34375 "/></g></g></g><g fill="#000000" fill-opacity="1"><g transform="translate(225.205034, 265.653966)"><g><path d="M 0.375 0 L 0.375 -4.90625 L 1.15625 -4.90625 L 4.359375 -0.671875 L 4.375 -0.671875 L 4.375 -4.90625 L 4.953125 -4.90625 L 4.953125 0 L 4.1875 0 L 0.96875 -4.234375 L 0.953125 -4.234375 L 0.953125 0 Z M 0.375 0 "/></g></g></g><g fill="#000000" fill-opacity="1"><g transform="translate(233.953681, 265.653966)"><g><path d="M 0.375 0 L 0.375 -4.90625 L 4.421875 -4.90625 L 4.421875 -4.390625 L 0.953125 -4.390625 L 0.953125 -2.78125 L 4.15625 -2.78125 L 4.15625 -2.28125 L 0.953125 -2.28125 L 0.953125 -0.515625 L 4.5 -0.515625 L 4.5 0 Z M 0.375 0 "/></g></g></g><g fill="#000000" fill-opacity="1"><g transform="translate(242.020251, 265.653966)"><g/></g></g><g fill="#000000" fill-opacity="1"><g transform="translate(247.462914, 265.653966)"><g><path d="M 0.0625 0 L 2.3125 -4.90625 L 3 -4.90625 L 5.25 0 L 4.625 0 L 4.078125 -1.171875 L 1.21875 -1.171875 L 0.671875 0 Z M 1.4375 -1.6875 L 3.875 -1.6875 L 2.65625 -4.359375 Z M 1.4375 -1.6875 "/></g></g></g><g fill="#000000" fill-opacity="1"><g transform="translate(256.16285, 265.653966)"><g><path d="M 0.375 0 L 0.375 -4.90625 L 3.078125 -4.90625 C 3.453125 -4.90625 3.773438 -4.84375 4.046875 -4.71875 C 4.316406 -4.59375 4.523438 -4.414062 4.671875 -4.1875 C 4.816406 -3.957031 4.890625 -3.6875 4.890625 -3.375 C 4.890625 -3.070312 4.816406 -2.804688 4.671875 -2.578125 C 4.523438 -2.347656 4.316406 -2.171875 4.046875 -2.046875 C 3.773438 -1.921875 3.453125 -1.859375 3.078125 -1.859375 L 0.953125 -1.859375 L 0.953125 0 Z M 0.953125 -2.375 L 3.03125 -2.375 C 3.425781 -2.375 3.738281 -2.460938 3.96875 -2.640625 C 4.195312 -2.828125 4.3125 -3.070312 4.3125 -3.375 C 4.3125 -3.6875 4.195312 -3.929688 3.96875 -4.109375 C 3.75 -4.296875 3.4375 -4.390625 3.03125 -4.390625 L 0.953125 -4.390625 Z M 0.953125 -2.375 "/></g></g></g><g fill="#000000" fill-opacity="1"><g transform="translate(264.591349, 265.653966)"><g><path d="M 0.375 0 L 0.375 -4.90625 L 3.078125 -4.90625 C 3.453125 -4.90625 3.773438 -4.84375 4.046875 -4.71875 C 4.316406 -4.59375 4.523438 -4.414062 4.671875 -4.1875 C 4.816406 -3.957031 4.890625 -3.6875 4.890625 -3.375 C 4.890625 -3.070312 4.816406 -2.804688 4.671875 -2.578125 C 4.523438 -2.347656 4.316406 -2.171875 4.046875 -2.046875 C 3.773438 -1.921875 3.453125 -1.859375 3.078125 -1.859375 L 0.953125 -1.859375 L 0.953125 0 Z M 0.953125 -2.375 L 3.03125 -2.375 C 3.425781 -2.375 3.738281 -2.460938 3.96875 -2.640625 C 4.195312 -2.828125 4.3125 -3.070312 4.3125 -3.375 C 4.3125 -3.6875 4.195312 -3.929688 3.96875 -4.109375 C 3.75 -4.296875 3.4375 -4.390625 3.03125 -4.390625 L 0.953125 -4.390625 Z M 0.953125 -2.375 "/></g></g></g><g fill="#000000" fill-opacity="1"><g transform="translate(273.019847, 265.653966)"><g><path d="M 0.640625 0.078125 C 0.523438 0.078125 0.429688 0.046875 0.359375 -0.015625 C 0.285156 -0.0859375 0.25 -0.1875 0.25 -0.3125 C 0.25 -0.414062 0.285156 -0.503906 0.359375 -0.578125 C 0.429688 -0.648438 0.523438 -0.6875 0.640625 -0.6875 C 0.753906 -0.6875 0.847656 -0.648438 0.921875 -0.578125 C 0.992188 -0.503906 1.03125 -0.414062 1.03125 -0.3125 C 1.03125 -0.1875 0.992188 -0.0859375 0.921875 -0.015625 C 0.847656 0.046875 0.753906 0.078125 0.640625 0.078125 Z M 0.640625 0.078125 "/></g></g></g><g clip-path="url(#28c671ae58)"><path fill="#000000" d="M 148.121094 115.238281 L 231.238281 115.238281 L 196.820312 173.136719 L 212.464844 173.136719 L 205.324219 185.90625 L 178.507812 185.90625 L 212.695312 128.425781 L 140.308594 128.425781 Z M 148.121094 115.238281 " fill-opacity="1" fill-rule="nonzero"/></g><g clip-path="url(#495cb39b71)"><path fill="#000000" d="M 226.996094 209.738281 L 143.878906 209.738281 L 178.296875 151.84375 L 162.652344 151.84375 L 169.792969 139.074219 L 196.609375 139.074219 L 162.421875 196.550781 L 234.808594 196.550781 Z M 226.996094 209.738281 " fill-opacity="1" fill-rule="nonzero"/></g></svg>